<?xml version="1.0" encoding="UTF-8" standalone="no"?>
<!-- Created with Inkscape (http://www.inkscape.org/) -->

<svg
   xmlns:ns0="http://www.iki.fi/pav/software/textext/"
   xmlns:dc="http://purl.org/dc/elements/1.1/"
   xmlns:cc="http://creativecommons.org/ns#"
   xmlns:rdf="http://www.w3.org/1999/02/22-rdf-syntax-ns#"
   xmlns:svg="http://www.w3.org/2000/svg"
   xmlns="http://www.w3.org/2000/svg"
   xmlns:sodipodi="http://sodipodi.sourceforge.net/DTD/sodipodi-0.dtd"
   xmlns:inkscape="http://www.inkscape.org/namespaces/inkscape"
   width="744.09448819"
   height="1052.3622047"
   id="svg6799"
   version="1.1"
   inkscape:version="0.48.3.1 r9886"
   sodipodi:docname="advection_bad.eps">
  <sodipodi:namedview
     id="base"
     pagecolor="#ffffff"
     bordercolor="#666666"
     borderopacity="1.0"
     inkscape:pageopacity="0.0"
     inkscape:pageshadow="2"
     inkscape:zoom="2.8"
     inkscape:cx="323.28036"
     inkscape:cy="951.37989"
     inkscape:document-units="px"
     inkscape:current-layer="layer1"
     showgrid="false"
     inkscape:window-width="1918"
     inkscape:window-height="1059"
     inkscape:window-x="0"
     inkscape:window-y="0"
     inkscape:window-maximized="0" />
  <defs
     id="defs6801">
    <marker
       inkscape:stockid="Arrow2Send"
       orient="auto"
       refY="0.0"
       refX="0.0"
       id="Arrow2Send"
       style="overflow:visible;">
      <path
         id="path3884"
         style="fill-rule:evenodd;stroke-width:0.62500000;stroke-linejoin:round;"
         d="M 8.7185878,4.0337352 L -2.2072895,0.016013256 L 8.7185884,-4.0017078 C 6.9730900,-1.6296469 6.9831476,1.6157441 8.7185878,4.0337352 z "
         transform="scale(0.3) rotate(180) translate(-2.3,0)" />
    </marker>
    <marker
       inkscape:stockid="Arrow2Mend"
       orient="auto"
       refY="0.0"
       refX="0.0"
       id="Arrow2Mend"
       style="overflow:visible;">
      <path
         id="path3878"
         style="fill-rule:evenodd;stroke-width:0.62500000;stroke-linejoin:round;"
         d="M 8.7185878,4.0337352 L -2.2072895,0.016013256 L 8.7185884,-4.0017078 C 6.9730900,-1.6296469 6.9831476,1.6157441 8.7185878,4.0337352 z "
         transform="scale(0.6) rotate(180) translate(0,0)" />
    </marker>
    <marker
       inkscape:stockid="Arrow1Mend"
       orient="auto"
       refY="0"
       refX="0"
       id="Arrow1Mend"
       style="overflow:visible">
      <path
         inkscape:connector-curvature="0"
         id="path3831"
         d="M 0,0 5,-5 -12.5,0 5,5 0,0 z"
         style="fill-rule:evenodd;stroke:#000000;stroke-width:1pt"
         transform="matrix(-0.4,0,0,-0.4,-4,0)" />
    </marker>
    <marker
       inkscape:stockid="Arrow1Mend"
       orient="auto"
       refY="0"
       refX="0"
       id="marker6776"
       style="overflow:visible">
      <path
         inkscape:connector-curvature="0"
         id="path6778"
         d="M 0,0 5,-5 -12.5,0 5,5 0,0 z"
         style="fill-rule:evenodd;stroke:#000000;stroke-width:1pt"
         transform="matrix(-0.4,0,0,-0.4,-4,0)" />
    </marker>
    <marker
       inkscape:stockid="Arrow1Mend"
       orient="auto"
       refY="0"
       refX="0"
       id="marker6780"
       style="overflow:visible">
      <path
         inkscape:connector-curvature="0"
         id="path6782"
         d="M 0,0 5,-5 -12.5,0 5,5 0,0 z"
         style="fill-rule:evenodd;stroke:#000000;stroke-width:1pt"
         transform="matrix(-0.4,0,0,-0.4,-4,0)" />
    </marker>
    <marker
       inkscape:stockid="Arrow1Mend"
       orient="auto"
       refY="0"
       refX="0"
       id="marker6784"
       style="overflow:visible">
      <path
         inkscape:connector-curvature="0"
         id="path6786"
         d="M 0,0 5,-5 -12.5,0 5,5 0,0 z"
         style="fill-rule:evenodd;stroke:#000000;stroke-width:1pt"
         transform="matrix(-0.4,0,0,-0.4,-4,0)" />
    </marker>
    <marker
       inkscape:stockid="Arrow1Lend"
       orient="auto"
       refY="0"
       refX="0"
       id="marker4370"
       style="overflow:visible">
      <path
         inkscape:connector-curvature="0"
         id="path4372"
         d="M 0,0 5,-5 -12.5,0 5,5 0,0 z"
         style="fill-rule:evenodd;stroke:#000000;stroke-width:1pt"
         transform="matrix(-0.8,0,0,-0.8,-10,0)" />
    </marker>
    <marker
       inkscape:stockid="Arrow2Send"
       orient="auto"
       refY="0"
       refX="0"
       id="Arrow2Send-1"
       style="overflow:visible">
      <path
         inkscape:connector-curvature="0"
         id="path3884-0"
         style="fill-rule:evenodd;stroke-width:0.625;stroke-linejoin:round"
         d="M 8.7185878,4.0337352 -2.2072895,0.01601326 8.7185884,-4.0017078 c -1.7454984,2.3720609 -1.7354408,5.6174519 -6e-7,8.035443 z"
         transform="matrix(-0.3,0,0,-0.3,0.69,0)" />
    </marker>
    <marker
       inkscape:stockid="Arrow1MendL"
       orient="auto"
       refY="0"
       refX="0"
       id="Arrow1MendL"
       style="overflow:visible">
      <path
         inkscape:connector-curvature="0"
         id="path8423"
         d="M 0,0 5,-5 -12.5,0 5,5 0,0 z"
         style="stroke:#8f8f8f;stroke-width:1pt;fill:#8f8f8f;fill-rule:evenodd"
         transform="matrix(-0.4,0,0,-0.4,-4,0)" />
    </marker>
    <marker
       inkscape:stockid="Arrow1MendB"
       orient="auto"
       refY="0"
       refX="0"
       id="Arrow1MendB"
       style="overflow:visible">
      <path
         inkscape:connector-curvature="0"
         id="path8426"
         d="M 0,0 5,-5 -12.5,0 5,5 0,0 z"
         style="stroke:#8f8f8f;stroke-width:1pt;fill:#8f8f8f;fill-rule:evenodd"
         transform="matrix(-0.4,0,0,-0.4,-4,0)" />
    </marker>
    <marker
       inkscape:stockid="Arrow1Mendb"
       orient="auto"
       refY="0"
       refX="0"
       id="Arrow1Mendb"
       style="overflow:visible">
      <path
         inkscape:connector-curvature="0"
         id="path8429"
         d="M 0,0 5,-5 -12.5,0 5,5 0,0 z"
         style="stroke:#8f8f8f;stroke-width:1pt;fill:#8f8f8f;fill-rule:evenodd"
         transform="matrix(-0.4,0,0,-0.4,-4,0)" />
    </marker>
    <marker
       inkscape:stockid="Arrow1Mend5"
       orient="auto"
       refY="0"
       refX="0"
       id="Arrow1Mend5"
       style="overflow:visible">
      <path
         inkscape:connector-curvature="0"
         id="path8432"
         d="M 0,0 5,-5 -12.5,0 5,5 0,0 z"
         style="stroke:#8f8f8f;stroke-width:1pt;fill:#8f8f8f;fill-rule:evenodd"
         transform="matrix(-0.4,0,0,-0.4,-4,0)" />
    </marker>
  </defs>
  <metadata
     id="metadata6804">
    <rdf:RDF>
      <cc:Work
         rdf:about="">
        <dc:format>image/svg+xml</dc:format>
        <dc:type
           rdf:resource="http://purl.org/dc/dcmitype/StillImage" />
        <dc:title></dc:title>
      </cc:Work>
    </rdf:RDF>
  </metadata>
  <g
     inkscape:label="Layer 1"
     inkscape:groupmode="layer"
     id="layer1">
    <rect
       style="fill:none;stroke:#000000;stroke-width:0.80000001;stroke-linecap:butt;stroke-linejoin:miter;stroke-miterlimit:4;stroke-opacity:1;stroke-dasharray:none;stroke-dashoffset:0"
       id="rect4455"
       width="131.5"
       height="131.5"
       x="237.07143"
       y="60.928944" />
    <rect
       style="fill:none;stroke:#000000;stroke-width:0.80000001;stroke-linecap:butt;stroke-linejoin:miter;stroke-miterlimit:4;stroke-opacity:1;stroke-dasharray:none;stroke-dashoffset:0"
       id="rect4455-2"
       width="131.5"
       height="131.5"
       x="368.57141"
       y="60.928944" />
    <path
       style="fill:none;stroke:#000000;stroke-width:1;stroke-linecap:butt;stroke-linejoin:miter;stroke-opacity:1;marker-mid:none;marker-end:url(#marker4370);stroke-miterlimit:4;stroke-dasharray:6,1;stroke-dashoffset:0"
       d="m 305.07143,123.92895 152.25,-45.749997"
       id="path4475"
       inkscape:connector-curvature="0" />
    <path
       style="stroke-linejoin:miter;marker-end:url(#Arrow1Mend5);stroke-opacity:1;stroke-dashoffset:0;stroke:#8f8f8f;stroke-linecap:butt;stroke-miterlimit:4;stroke-dasharray:none;stroke-width:1;fill:none"
       d="m 458.07143,77.928953 41,113.124997"
       id="path5269"
       inkscape:connector-curvature="0"
       sodipodi:nodetypes="cc" />
    <path
       style="stroke-linejoin:miter;marker-end:url(#Arrow1MendL);stroke-opacity:1;stroke-dashoffset:0;stroke:#8f8f8f;stroke-linecap:butt;stroke-miterlimit:4;stroke-dasharray:none;stroke-width:1;fill:none"
       d="M 458.07143,77.928953 369.63209,191.29507"
       id="path5271"
       inkscape:connector-curvature="0"
       sodipodi:nodetypes="cc" />
    <path
       sodipodi:type="arc"
       style="fill:#000000;fill-opacity:1;fill-rule:nonzero;stroke:#000000;stroke-width:1;stroke-linecap:butt;stroke-linejoin:miter;stroke-miterlimit:4;stroke-opacity:1;stroke-dasharray:none;stroke-dashoffset:0"
       id="path5276-0"
       sodipodi:cx="480.3125"
       sodipodi:cy="113.11218"
       sodipodi:rx="1"
       sodipodi:ry="1"
       d="m 481.3125,113.11218 a 1,1 0 1 1 -2,0 1,1 0 1 1 2,0 z"
       transform="translate(-175.24107,10.816766)" />
    <path
       style="stroke-linejoin:miter;marker-end:url(#Arrow1MendB);stroke-opacity:1;stroke-dashoffset:0;stroke:#8f8f8f;stroke-linecap:butt;stroke-miterlimit:4;stroke-dasharray:none;stroke-width:1;fill:none"
       d="M 458.19643,77.803943 498.32641,61.849452"
       id="path5269-3"
       inkscape:connector-curvature="0"
       sodipodi:nodetypes="cc" />
    <path
       style="stroke-linejoin:miter;marker-end:url(#Arrow1Mendb);stroke-opacity:1;marker-start:none;stroke-dashoffset:0;stroke:#8f8f8f;stroke-linecap:butt;stroke-miterlimit:4;stroke-dasharray:none;stroke-width:1;fill:none"
       d="M 457.82143,77.553943 369.98564,61.613312"
       id="path5269-3-1"
       inkscape:connector-curvature="0"
       sodipodi:nodetypes="cc" />
    <path
       sodipodi:type="arc"
       style="fill:#000000;fill-opacity:1;fill-rule:nonzero;stroke:#000000;stroke-width:1;stroke-linecap:butt;stroke-linejoin:miter;stroke-miterlimit:4;stroke-opacity:1;stroke-dasharray:none;stroke-dashoffset:0"
       id="path5276"
       sodipodi:cx="480.3125"
       sodipodi:cy="113.11218"
       sodipodi:rx="1"
       sodipodi:ry="1"
       d="m 481.3125,113.11218 a 1,1 0 1 1 -2,0 1,1 0 1 1 2,0 z"
       transform="translate(-22.303568,-35.183237)" />
    <g
       ns0:preamble="/home/philipp/diplomarbeit/textext_preamble.tex"
       ns0:text="$n_1$"
       word-spacing="normal"
       letter-spacing="normal"
       font-size-adjust="none"
       font-stretch="normal"
       font-weight="normal"
       font-variant="normal"
       font-style="normal"
       stroke-miterlimit="10.433"
       xml:space="preserve"
       transform="matrix(1,0,0,-1,140.92649,763.51079)"
       id="content"
       style="font-style:normal;font-variant:normal;font-weight:normal;font-stretch:normal;letter-spacing:normal;word-spacing:normal;text-anchor:start;fill:none;stroke:#000000;stroke-linecap:butt;stroke-linejoin:miter;stroke-miterlimit:10.43299961;stroke-opacity:1;stroke-dasharray:none;stroke-dashoffset:0"><path
         id="path3232"
         d="m 223.67,710.98 0.07,-0.2 0.32,0.21 c 0.37,0.23 0.4,0.25 0.47,0.25 0.11,0 0.18,-0.1 0.18,-0.25 0,-0.51 -0.41,-2.42 -0.82,-3.84 l 0.07,-0.11 c 0.25,0.06 0.48,0.12 0.7,0.16 0.19,1.26 0.39,1.9 0.85,2.59 0.54,0.83 1.28,1.45 1.73,1.45 0.11,0 0.17,-0.09 0.17,-0.24 0,-0.18 -0.03,-0.39 -0.11,-0.71 l -0.51,-2.1 c -0.09,-0.37 -0.13,-0.6 -0.13,-0.76 0,-0.25 0.1,-0.39 0.29,-0.39 0.26,0 0.62,0.2 1.6,0.93 l -0.1,0.18 -0.26,-0.17 c -0.29,-0.19 -0.51,-0.3 -0.61,-0.3 -0.07,0 -0.13,0.09 -0.13,0.2 0,0.05 0.01,0.16 0.02,0.2 l 0.66,2.74 c 0.07,0.29 0.11,0.57 0.11,0.73 0,0.23 -0.11,0.36 -0.31,0.36 -0.42,0 -1.11,-0.37 -1.69,-0.92 -0.38,-0.35 -0.66,-0.69 -1.18,-1.41 l 0.38,1.6 c 0.04,0.18 0.06,0.3 0.06,0.41 0,0.2 -0.08,0.32 -0.23,0.32 -0.21,0 -0.59,-0.21 -1.32,-0.73 z"
         inkscape:connector-curvature="0"
         style="fill:#000000;stroke-width:0" /><path
         id="path3234"
         d="m 229.44,709.49 h 0.07 l 0.9,0.4 c 0,0.01 0.01,0.01 0.02,0.01 0.04,0 0.05,-0.06 0.05,-0.23 v -3.37 c 0,-0.36 -0.07,-0.44 -0.45,-0.46 l -0.39,-0.02 v -0.21 c 1.07,0.02 1.07,0.02 1.15,0.02 0.09,0 0.24,0 0.48,-0.01 0.08,0 0.33,0 0.61,-0.01 v 0.21 l -0.36,0.02 c -0.38,0.02 -0.45,0.1 -0.45,0.46 v 4.12 l -0.1,0.04 c -0.45,-0.24 -0.95,-0.45 -1.58,-0.67 z"
         inkscape:connector-curvature="0"
         style="fill:#000000;stroke-width:0" /></g>    <g
       style="font-style:normal;font-variant:normal;font-weight:normal;font-stretch:normal;letter-spacing:normal;word-spacing:normal;text-anchor:start;fill:none;stroke:#000000;stroke-linecap:butt;stroke-linejoin:miter;stroke-miterlimit:10.43299961;stroke-opacity:1;stroke-dasharray:none;stroke-dashoffset:0"
       id="g3428"
       transform="matrix(1,0,0,-1,277.04454,765.65736)"
       xml:space="preserve"
       stroke-miterlimit="10.433"
       font-style="normal"
       font-variant="normal"
       font-weight="normal"
       font-stretch="normal"
       font-size-adjust="none"
       letter-spacing="normal"
       word-spacing="normal"
       ns0:text="$n_2$"
       ns0:preamble="/home/philipp/diplomarbeit/textext_preamble.tex"><path
         style="fill:#000000;stroke-width:0"
         inkscape:connector-curvature="0"
         d="m 223.67,710.98 0.07,-0.2 0.32,0.21 c 0.37,0.23 0.4,0.25 0.47,0.25 0.11,0 0.18,-0.1 0.18,-0.25 0,-0.51 -0.41,-2.42 -0.82,-3.84 l 0.07,-0.11 c 0.25,0.06 0.48,0.12 0.7,0.16 0.19,1.26 0.39,1.9 0.85,2.59 0.54,0.83 1.28,1.45 1.73,1.45 0.11,0 0.17,-0.09 0.17,-0.24 0,-0.18 -0.03,-0.39 -0.11,-0.71 l -0.51,-2.1 c -0.09,-0.37 -0.13,-0.6 -0.13,-0.76 0,-0.25 0.1,-0.39 0.29,-0.39 0.26,0 0.62,0.2 1.6,0.93 l -0.1,0.18 -0.26,-0.17 c -0.29,-0.19 -0.51,-0.3 -0.61,-0.3 -0.07,0 -0.13,0.09 -0.13,0.2 0,0.05 0.01,0.16 0.02,0.2 l 0.66,2.74 c 0.07,0.29 0.11,0.57 0.11,0.73 0,0.23 -0.11,0.36 -0.31,0.36 -0.42,0 -1.11,-0.37 -1.69,-0.92 -0.38,-0.35 -0.66,-0.69 -1.18,-1.41 l 0.38,1.6 c 0.04,0.18 0.06,0.3 0.06,0.41 0,0.2 -0.08,0.32 -0.23,0.32 -0.21,0 -0.59,-0.21 -1.32,-0.73 z"
         id="path3430" /><path
         style="fill:#000000;stroke-width:0"
         inkscape:connector-curvature="0"
         d="m 229.08,705.79 v -0.18 c 1.3,0.02 1.3,0.02 1.56,0.02 0.25,0 0.25,0 1.59,-0.02 -0.01,0.15 -0.01,0.22 -0.01,0.31 0,0.09 0,0.16 0.01,0.32 -0.8,-0.04 -1.12,-0.05 -2.41,-0.07 l 1.27,1.34 c 0.67,0.71 0.88,1.1 0.88,1.62 0,0.8 -0.54,1.29 -1.43,1.29 -0.5,0 -0.84,-0.14 -1.18,-0.49 l -0.12,-0.94 h 0.21 l 0.09,0.32 c 0.11,0.4 0.36,0.58 0.82,0.58 0.6,0 0.99,-0.38 0.99,-0.97 0,-0.52 -0.3,-1.04 -1.08,-1.87 z"
         id="path3432" /></g>    <g
       style="font-style:normal;font-variant:normal;font-weight:normal;font-stretch:normal;letter-spacing:normal;word-spacing:normal;text-anchor:start;fill:none;stroke:#000000;stroke-linecap:butt;stroke-linejoin:miter;stroke-miterlimit:10.43299961;stroke-opacity:1;stroke-dasharray:none;stroke-dashoffset:0"
       ns0:preamble="/home/philipp/diplomarbeit/textext_preamble.tex"
       ns0:text="$n_3$"
       word-spacing="normal"
       letter-spacing="normal"
       font-size-adjust="none"
       font-stretch="normal"
       font-weight="normal"
       font-variant="normal"
       font-style="normal"
       stroke-miterlimit="10.433"
       xml:space="preserve"
       transform="matrix(1,0,0,-1,277.29708,906.57364)"
       id="g3604"><path
         style="fill:#000000;stroke-width:0"
         inkscape:connector-curvature="0"
         id="path3606"
         d="m 223.67,710.98 0.07,-0.2 0.32,0.21 c 0.37,0.23 0.4,0.25 0.47,0.25 0.11,0 0.18,-0.1 0.18,-0.25 0,-0.51 -0.41,-2.42 -0.82,-3.84 l 0.07,-0.11 c 0.25,0.06 0.48,0.12 0.7,0.16 0.19,1.26 0.39,1.9 0.85,2.59 0.54,0.83 1.28,1.45 1.73,1.45 0.11,0 0.17,-0.09 0.17,-0.24 0,-0.18 -0.03,-0.39 -0.11,-0.71 l -0.51,-2.1 c -0.09,-0.37 -0.13,-0.6 -0.13,-0.76 0,-0.25 0.1,-0.39 0.29,-0.39 0.26,0 0.62,0.2 1.6,0.93 l -0.1,0.18 -0.26,-0.17 c -0.29,-0.19 -0.51,-0.3 -0.61,-0.3 -0.07,0 -0.13,0.09 -0.13,0.2 0,0.05 0.01,0.16 0.02,0.2 l 0.66,2.74 c 0.07,0.29 0.11,0.57 0.11,0.73 0,0.23 -0.11,0.36 -0.31,0.36 -0.42,0 -1.11,-0.37 -1.69,-0.92 -0.38,-0.35 -0.66,-0.69 -1.18,-1.41 l 0.38,1.6 c 0.04,0.18 0.06,0.3 0.06,0.41 0,0.2 -0.08,0.32 -0.23,0.32 -0.21,0 -0.59,-0.21 -1.32,-0.73 z" /><path
         style="fill:#000000;stroke-width:0"
         inkscape:connector-curvature="0"
         id="path3608"
         d="m 229.27,709.09 h 0.22 l 0.12,0.39 c 0.08,0.24 0.52,0.48 0.88,0.48 0.45,0 0.82,-0.37 0.82,-0.81 0,-0.52 -0.41,-0.96 -0.9,-0.96 -0.06,0 -0.14,0.01 -0.23,0.01 l -0.1,0.01 -0.09,-0.37 0.05,-0.04 c 0.27,0.12 0.4,0.15 0.59,0.15 0.58,0 0.91,-0.36 0.91,-1 0,-0.71 -0.42,-1.17 -1.07,-1.17 -0.32,0 -0.61,0.1 -0.82,0.3 -0.16,0.15 -0.25,0.31 -0.39,0.68 l -0.19,-0.06 c 0.15,-0.43 0.21,-0.68 0.25,-1.03 0.37,-0.12 0.67,-0.18 0.93,-0.18 0.56,0 1.2,0.31 1.58,0.78 0.24,0.29 0.36,0.59 0.36,0.92 0,0.33 -0.14,0.62 -0.39,0.8 -0.18,0.12 -0.34,0.18 -0.68,0.24 0.55,0.43 0.76,0.75 0.76,1.16 0,0.62 -0.51,1.03 -1.29,1.03 -0.47,0 -0.78,-0.13 -1.12,-0.46 z" /></g>    <g
       style="font-style:normal;font-variant:normal;font-weight:normal;font-stretch:normal;letter-spacing:normal;word-spacing:normal;text-anchor:start;fill:none;stroke:#000000;stroke-linecap:butt;stroke-linejoin:miter;stroke-miterlimit:10.43299961;stroke-opacity:1;stroke-dasharray:none;stroke-dashoffset:0"
       id="g3786"
       transform="matrix(1,0,0,-1,140.42141,907.33125)"
       xml:space="preserve"
       stroke-miterlimit="10.433"
       font-style="normal"
       font-variant="normal"
       font-weight="normal"
       font-stretch="normal"
       font-size-adjust="none"
       letter-spacing="normal"
       word-spacing="normal"
       ns0:text="$n_4$"
       ns0:preamble="/home/philipp/diplomarbeit/textext_preamble.tex"><path
         style="fill:#000000;stroke-width:0"
         inkscape:connector-curvature="0"
         d="m 223.67,710.98 0.07,-0.2 0.32,0.21 c 0.37,0.23 0.4,0.25 0.47,0.25 0.11,0 0.18,-0.1 0.18,-0.25 0,-0.51 -0.41,-2.42 -0.82,-3.84 l 0.07,-0.11 c 0.25,0.06 0.48,0.12 0.7,0.16 0.19,1.26 0.39,1.9 0.85,2.59 0.54,0.83 1.28,1.45 1.73,1.45 0.11,0 0.17,-0.09 0.17,-0.24 0,-0.18 -0.03,-0.39 -0.11,-0.71 l -0.51,-2.1 c -0.09,-0.37 -0.13,-0.6 -0.13,-0.76 0,-0.25 0.1,-0.39 0.29,-0.39 0.26,0 0.62,0.2 1.6,0.93 l -0.1,0.18 -0.26,-0.17 c -0.29,-0.19 -0.51,-0.3 -0.61,-0.3 -0.07,0 -0.13,0.09 -0.13,0.2 0,0.05 0.01,0.16 0.02,0.2 l 0.66,2.74 c 0.07,0.29 0.11,0.57 0.11,0.73 0,0.23 -0.11,0.36 -0.31,0.36 -0.42,0 -1.11,-0.37 -1.69,-0.92 -0.38,-0.35 -0.66,-0.69 -1.18,-1.41 l 0.38,1.6 c 0.04,0.18 0.06,0.3 0.06,0.41 0,0.2 -0.08,0.32 -0.23,0.32 -0.21,0 -0.59,-0.21 -1.32,-0.73 z"
         id="path3788" /><path
         style="fill:#000000;stroke-width:0"
         inkscape:connector-curvature="0"
         d="m 230.92,706.89 v 0.45 h -1.5 l 1.5,2.44 v -2.44 -0.45 -0.52 c 0,-0.42 -0.08,-0.52 -0.42,-0.53 l -0.43,-0.02 v -0.21 c 0.93,0.02 0.93,0.02 1.09,0.02 0.17,0 0.17,0 1.1,-0.02 v 0.21 l -0.34,0.02 c -0.34,0.02 -0.41,0.11 -0.41,0.53 v 0.52 c 0.41,0 0.55,-0.01 0.75,-0.03 v 0.49 c -0.33,-0.02 -0.46,-0.02 -0.57,-0.01 h -0.02 -0.16 v 0.96 c 0,1.24 0.01,1.84 0.04,2.12 l -0.08,0.04 -0.51,-0.19 -1.97,-3.22 0.07,-0.16 z"
         id="path3790" /></g>    <g
       ns0:preamble="/home/philipp/diplomarbeit/textext_preamble.tex"
       ns0:text="$q_{i,j,k}$"
       word-spacing="normal"
       letter-spacing="normal"
       font-size-adjust="none"
       font-stretch="normal"
       font-weight="normal"
       font-variant="normal"
       font-style="normal"
       stroke-miterlimit="10.433"
       xml:space="preserve"
       transform="matrix(1,0,0,-1,69.642857,838.21429)"
       id="g3966"
       style="font-style:normal;font-variant:normal;font-weight:normal;font-stretch:normal;letter-spacing:normal;word-spacing:normal;text-anchor:start;fill:none;stroke:#000000;stroke-linecap:butt;stroke-linejoin:miter;stroke-miterlimit:10.43299961;stroke-opacity:1;stroke-dasharray:none;stroke-dashoffset:0"><path
         id="path3968"
         d="m 227.26,711.67 -0.04,0.02 -0.04,0.02 -0.03,0.01 -0.04,0.01 -0.04,0.02 -0.03,0.01 -0.04,0.01 -0.03,0.01 -0.04,0.01 -0.03,0.02 -0.07,0.01 -0.06,0.02 -0.06,0.02 -0.06,0.01 -0.06,0.01 -0.06,0.01 -0.05,0.01 -0.06,0.01 -0.05,0 -0.06,0 -0.05,0 c -0.27,0 -0.51,-0.08 -0.79,-0.25 -0.36,-0.21 -0.79,-0.57 -1.01,-0.82 -0.4,-0.47 -0.79,-1.92 -0.79,-2.94 0,-0.59 0.12,-0.88 0.36,-0.88 0.22,0 0.41,0.07 0.73,0.29 l 0.08,0.06 -0.23,0.34 c -0.14,0 -0.22,0.21 -0.22,0.54 0,0.95 0.43,2.44 0.84,2.94 0.12,0.15 0.41,0.24 0.73,0.24 0.28,0 0.49,-0.06 0.96,-0.27 l -0.21,-0.95 c -0.1,-0.5 -0.32,-0.94 -0.69,-1.4 -0.52,-0.63 -1.12,-1.1 -1.41,-1.1 l 0.23,-0.34 c 0.64,0.46 1.29,1.18 1.66,1.83 l -0.76,-4.11 c -0.05,-0.24 -0.15,-0.44 -0.27,-0.57 l 0.09,-0.14 c 0.31,0.08 0.62,0.14 0.86,0.17 0.04,0.54 0.1,1.09 0.19,1.58 l 0.85,4.53 c 0.11,0.61 0.17,0.87 0.27,1.17 l -0.14,0.06 z"
         inkscape:connector-curvature="0"
         style="fill:#000000;stroke-width:0" /><path
         id="path3970"
         d="m 228.28,708.23 0.05,-0.14 0.22,0.14 c 0.26,0.16 0.28,0.18 0.33,0.18 0.07,0 0.13,-0.07 0.13,-0.16 0,-0.05 -0.03,-0.21 -0.06,-0.31 l -0.46,-1.67 c -0.06,-0.21 -0.09,-0.4 -0.09,-0.53 0,-0.17 0.08,-0.27 0.21,-0.27 0.18,0 0.43,0.14 1.11,0.65 l -0.07,0.12 -0.18,-0.11 c -0.2,-0.14 -0.36,-0.21 -0.42,-0.21 -0.05,0 -0.09,0.07 -0.09,0.14 0,0.07 0.01,0.13 0.05,0.28 l 0.53,2.11 c 0.03,0.12 0.04,0.19 0.04,0.25 0,0.12 -0.06,0.18 -0.17,0.18 -0.15,0 -0.41,-0.15 -0.93,-0.52 z"
         inkscape:connector-curvature="0"
         style="fill:#000000;stroke-width:0" /><path
         id="path3972"
         d="m 229.63,710.48 -0.02,0 -0.01,0 -0.02,-0.01 -0.02,0 -0.02,-0.01 -0.02,0 -0.02,-0.01 -0.02,-0.01 -0.01,-0.01 -0.02,-0.01 -0.02,-0.01 -0.01,-0.02 -0.02,-0.01 -0.02,-0.01 -0.01,-0.02 -0.01,-0.02 -0.02,-0.01 -0.01,-0.02 -0.01,-0.02 -0.02,-0.02 -0.01,-0.01 -0.01,-0.02 -0.01,-0.02 -0.01,-0.02 0,-0.02 -0.01,-0.03 -0.01,-0.02 0,-0.02 -0.01,-0.02 0,-0.02 0,-0.02 0,-0.03 c 0,-0.17 0.1,-0.28 0.27,-0.28 0.22,0 0.38,0.2 0.38,0.46 0,0.17 -0.1,0.29 -0.25,0.29 z"
         inkscape:connector-curvature="0"
         style="fill:#000000;stroke-width:0" /><path
         id="path3974"
         d="m 231.5,706.29 -0.1,0.09 c -0.23,-0.07 -0.44,-0.15 -0.68,-0.21 -0.05,-0.59 -0.32,-1.14 -0.63,-1.64 l 0.1,-0.08 0.29,0.13 c 0.4,0.52 0.8,1.08 1.02,1.71 z"
         inkscape:connector-curvature="0"
         style="fill:#000000;stroke-width:0" /><path
         id="path3976"
         d="m 231.94,703.66 0.01,-0.01 0.01,0 0.02,-0.01 0.01,0 0.02,-0.01 0.01,0 0.02,-0.01 0.02,0 0.01,0 0.02,0 0.02,-0.01 0.02,0 0.01,0 0.02,0 0.02,0 0.02,0 c 0.28,0 0.56,0.3 0.81,0.86 0.14,0.31 0.24,0.66 0.43,1.55 l 0.53,2.43 c 0.03,0.12 0.04,0.21 0.04,0.26 0,0.11 -0.06,0.17 -0.17,0.17 -0.16,0 -0.41,-0.15 -0.94,-0.52 l -0.19,-0.13 0.05,-0.14 0.22,0.14 c 0.26,0.16 0.28,0.18 0.33,0.18 0.07,0 0.12,-0.07 0.12,-0.16 0,-0.03 -0.01,-0.12 -0.03,-0.2 -0.01,-0.04 -0.02,-0.07 -0.02,-0.08 l -0.69,-3.44 c -0.08,-0.37 -0.2,-0.61 -0.33,-0.61 -0.1,0 -0.22,0.04 -0.37,0.13 z"
         inkscape:connector-curvature="0"
         style="fill:#000000;stroke-width:0" /><path
         id="path3978"
         d="m 234.02,710.48 -0.02,0 -0.02,0 -0.02,-0.01 -0.02,0 -0.01,-0.01 -0.02,0 -0.02,-0.01 -0.02,-0.01 -0.02,-0.01 -0.01,-0.01 -0.02,-0.01 -0.02,-0.02 -0.01,-0.01 -0.02,-0.01 -0.01,-0.02 -0.02,-0.02 -0.01,-0.01 -0.02,-0.02 -0.01,-0.02 -0.01,-0.02 -0.01,-0.01 -0.01,-0.02 -0.01,-0.02 -0.01,-0.02 -0.01,-0.02 -0.01,-0.03 0,-0.02 -0.01,-0.02 0,-0.02 0,-0.02 0,-0.02 0,-0.03 c 0,-0.17 0.1,-0.28 0.27,-0.28 0.21,0 0.38,0.2 0.38,0.46 0,0.17 -0.11,0.29 -0.25,0.29 z"
         inkscape:connector-curvature="0"
         style="fill:#000000;stroke-width:0" /><path
         id="path3980"
         d="m 235.5,706.29 -0.1,0.09 c -0.23,-0.07 -0.45,-0.15 -0.68,-0.21 -0.05,-0.59 -0.32,-1.14 -0.63,-1.64 l 0.1,-0.08 0.28,0.13 c 0.41,0.52 0.8,1.08 1.03,1.71 z"
         inkscape:connector-curvature="0"
         style="fill:#000000;stroke-width:0" /><path
         id="path3982"
         d="m 237.35,710.55 -0.08,0.07 c -0.36,-0.18 -0.61,-0.24 -1.12,-0.29 l -0.02,-0.14 h 0.33 c 0.17,0 0.24,-0.05 0.24,-0.17 0,-0.06 -0.01,-0.12 -0.02,-0.17 l -0.33,-1.86 c -0.1,-0.52 -0.21,-1 -0.57,-2.46 l 0.06,-0.06 0.47,0.11 0.16,0.87 c 0.06,0.33 0.23,0.64 0.46,0.88 0.48,-1.39 0.71,-1.86 0.88,-1.86 0.09,0 0.26,0.09 0.57,0.3 l 0.32,0.22 -0.06,0.14 -0.3,-0.17 c -0.1,-0.06 -0.14,-0.07 -0.2,-0.07 -0.07,0 -0.12,0.04 -0.18,0.16 -0.25,0.44 -0.4,0.82 -0.67,1.67 l 0.1,0.1 c 0.42,0.43 0.74,0.6 1.09,0.6 0.06,0 0.13,-0.01 0.25,-0.04 l 0.12,0.44 c -0.12,0.04 -0.25,0.06 -0.33,0.06 -0.46,0 -1.04,-0.54 -1.91,-1.75 z"
         inkscape:connector-curvature="0"
         style="fill:#000000;stroke-width:0" /></g>    <g
       style="font-style:normal;font-variant:normal;font-weight:normal;font-stretch:normal;letter-spacing:normal;word-spacing:normal;text-anchor:start;fill:none;stroke:#000000;stroke-linecap:butt;stroke-linejoin:miter;stroke-miterlimit:10.43299961;stroke-opacity:1;stroke-dasharray:none;stroke-dashoffset:0"
       id="g4164"
       transform="matrix(1,0,0,-1,147.5,821.07143)"
       xml:space="preserve"
       stroke-miterlimit="10.433"
       font-style="normal"
       font-variant="normal"
       font-weight="normal"
       font-stretch="normal"
       font-size-adjust="none"
       letter-spacing="normal"
       word-spacing="normal"
       ns0:text="$\\vec{u}_{i,j,k}$"
       ns0:preamble="/home/philipp/diplomarbeit/textext_preamble.tex"><polygon
         style="fill:#000000;stroke-width:0"
         points="228.44,715.08 229.01,714.04 225.51,714.04 225.42,713.62 228.93,713.62 227.89,712.56 228.09,712.31 229.85,713.83 228.75,715.33 "
         id="polygon4166" /><path
         style="fill:#000000;stroke-width:0"
         inkscape:connector-curvature="0"
         d="m 226.74,708.09 -0.01,-0.05 -0.01,-0.04 -0.01,-0.05 -0.01,-0.04 -0.01,-0.05 -0.01,-0.04 -0.01,-0.05 -0.01,-0.04 0,-0.05 -0.01,-0.04 0,-0.04 0,-0.02 -0.01,-0.02 0,-0.01 0,-0.02 0,-0.02 0,-0.02 0,-0.01 0,-0.02 0,-0.01 0,-0.02 c 0,-0.25 0.1,-0.39 0.29,-0.39 0.26,0 0.62,0.2 1.6,0.93 l -0.1,0.18 -0.26,-0.17 c -0.24,-0.16 -0.5,-0.27 -0.61,-0.27 -0.08,0 -0.13,0.07 -0.13,0.17 0,0.08 0.02,0.19 0.05,0.34 l 0.01,0.06 c 0.23,1.08 0.54,2.4 0.84,3.54 l -0.07,0.09 -0.68,-0.17 -0.1,-0.5 c -0.15,-0.78 -0.4,-1.45 -0.71,-1.92 -0.58,-0.9 -1.36,-1.61 -1.76,-1.61 -0.08,0 -0.13,0.09 -0.13,0.26 0,0.14 0.02,0.27 0.07,0.52 l 0.57,2.69 c 0.03,0.16 0.05,0.3 0.05,0.42 0,0.19 -0.09,0.31 -0.23,0.31 -0.2,0 -0.58,-0.2 -1.31,-0.73 l -0.28,-0.2 0.07,-0.2 0.32,0.21 c 0.28,0.18 0.39,0.23 0.48,0.23 0.09,0 0.17,-0.09 0.17,-0.2 0,-0.04 -0.02,-0.14 -0.03,-0.18 l -0.62,-2.95 c -0.02,-0.09 -0.04,-0.33 -0.04,-0.47 0,-0.23 0.15,-0.4 0.35,-0.4 0.62,0 1.83,1.11 2.66,2.48 z"
         id="path4168" /><path
         style="fill:#000000;stroke-width:0"
         inkscape:connector-curvature="0"
         d="m 229.21,708.23 0.05,-0.14 0.22,0.14 c 0.26,0.16 0.28,0.18 0.33,0.18 0.07,0 0.12,-0.07 0.12,-0.16 0,-0.05 -0.03,-0.21 -0.05,-0.31 l -0.46,-1.67 c -0.06,-0.21 -0.09,-0.4 -0.09,-0.53 0,-0.17 0.07,-0.27 0.21,-0.27 0.18,0 0.43,0.14 1.11,0.65 l -0.07,0.12 -0.18,-0.11 c -0.2,-0.14 -0.36,-0.21 -0.43,-0.21 -0.04,0 -0.09,0.07 -0.09,0.14 0,0.07 0.02,0.13 0.05,0.28 l 0.54,2.11 c 0.03,0.12 0.04,0.19 0.04,0.25 0,0.12 -0.06,0.18 -0.17,0.18 -0.16,0 -0.41,-0.15 -0.94,-0.52 z"
         id="path4170" /><path
         style="fill:#000000;stroke-width:0"
         inkscape:connector-curvature="0"
         d="m 230.56,710.48 -0.02,0 -0.02,0 -0.02,-0.01 -0.02,0 -0.01,-0.01 -0.02,0 -0.02,-0.01 -0.02,-0.01 -0.02,-0.01 -0.01,-0.01 -0.02,-0.01 -0.02,-0.02 -0.01,-0.01 -0.02,-0.01 -0.01,-0.02 -0.02,-0.02 -0.01,-0.01 -0.02,-0.02 -0.01,-0.02 -0.01,-0.02 -0.01,-0.01 -0.01,-0.02 -0.01,-0.02 -0.01,-0.02 -0.01,-0.02 -0.01,-0.03 0,-0.02 -0.01,-0.02 0,-0.02 0,-0.02 0,-0.02 -0.01,-0.03 c 0,-0.17 0.11,-0.28 0.28,-0.28 0.21,0 0.38,0.2 0.38,0.46 0,0.17 -0.1,0.29 -0.25,0.29 z"
         id="path4172" /><path
         style="fill:#000000;stroke-width:0"
         inkscape:connector-curvature="0"
         d="m 232.43,706.29 -0.1,0.09 c -0.23,-0.07 -0.45,-0.15 -0.68,-0.21 -0.05,-0.59 -0.32,-1.14 -0.63,-1.64 l 0.1,-0.08 0.28,0.13 c 0.41,0.52 0.81,1.08 1.03,1.71 z"
         id="path4174" /><path
         style="fill:#000000;stroke-width:0"
         inkscape:connector-curvature="0"
         d="m 232.86,703.66 0.02,-0.01 0.01,0 0.01,-0.01 0.02,0 0.01,-0.01 0.02,0 0.02,-0.01 0.01,0 0.02,0 0.02,0 0.01,-0.01 0.02,0 0.02,0 0.02,0 0.02,0 0.02,0 c 0.28,0 0.55,0.3 0.81,0.86 0.13,0.31 0.23,0.66 0.43,1.55 l 0.53,2.43 c 0.03,0.12 0.04,0.21 0.04,0.26 0,0.11 -0.06,0.17 -0.18,0.17 -0.15,0 -0.41,-0.15 -0.93,-0.52 l -0.19,-0.13 0.04,-0.14 0.23,0.14 c 0.26,0.16 0.28,0.18 0.33,0.18 0.06,0 0.12,-0.07 0.12,-0.16 0,-0.03 -0.01,-0.12 -0.03,-0.2 -0.01,-0.04 -0.02,-0.07 -0.02,-0.08 l -0.69,-3.44 c -0.08,-0.37 -0.21,-0.61 -0.33,-0.61 -0.1,0 -0.22,0.04 -0.37,0.13 z"
         id="path4176" /><path
         style="fill:#000000;stroke-width:0"
         inkscape:connector-curvature="0"
         d="m 234.95,710.48 -0.02,0 -0.02,0 -0.02,-0.01 -0.02,0 -0.02,-0.01 -0.02,0 -0.01,-0.01 -0.02,-0.01 -0.02,-0.01 -0.02,-0.01 -0.01,-0.01 -0.02,-0.02 -0.02,-0.01 -0.01,-0.01 -0.02,-0.02 -0.01,-0.02 -0.02,-0.01 -0.01,-0.02 -0.01,-0.02 -0.01,-0.02 -0.01,-0.01 -0.01,-0.02 -0.01,-0.02 -0.01,-0.02 -0.01,-0.02 -0.01,-0.03 0,-0.02 -0.01,-0.02 0,-0.02 -0.01,-0.02 0,-0.02 0,-0.03 c 0,-0.17 0.11,-0.28 0.27,-0.28 0.22,0 0.39,0.2 0.39,0.46 0,0.17 -0.11,0.29 -0.25,0.29 z"
         id="path4178" /><path
         style="fill:#000000;stroke-width:0"
         inkscape:connector-curvature="0"
         d="m 236.42,706.29 -0.09,0.09 c -0.23,-0.07 -0.45,-0.15 -0.69,-0.21 -0.04,-0.59 -0.32,-1.14 -0.62,-1.64 l 0.1,-0.08 0.28,0.13 c 0.4,0.52 0.8,1.08 1.02,1.71 z"
         id="path4180" /><path
         style="fill:#000000;stroke-width:0"
         inkscape:connector-curvature="0"
         d="m 238.28,710.55 -0.08,0.07 c -0.37,-0.18 -0.62,-0.24 -1.12,-0.29 l -0.03,-0.14 h 0.34 c 0.16,0 0.23,-0.05 0.23,-0.17 0,-0.06 0,-0.12 -0.01,-0.17 l -0.33,-1.86 c -0.1,-0.52 -0.21,-1 -0.57,-2.46 l 0.06,-0.06 0.46,0.11 0.16,0.87 c 0.07,0.33 0.23,0.64 0.47,0.88 0.48,-1.39 0.7,-1.86 0.88,-1.86 0.09,0 0.26,0.09 0.56,0.3 l 0.32,0.22 -0.05,0.14 -0.3,-0.17 c -0.1,-0.06 -0.15,-0.07 -0.2,-0.07 -0.07,0 -0.12,0.04 -0.19,0.16 -0.24,0.44 -0.39,0.82 -0.66,1.67 l 0.09,0.1 c 0.43,0.43 0.75,0.6 1.1,0.6 0.05,0 0.13,-0.01 0.25,-0.04 l 0.12,0.44 c -0.13,0.04 -0.26,0.06 -0.34,0.06 -0.46,0 -1.04,-0.54 -1.91,-1.75 z"
         id="path4182" /></g>    <g
       ns0:preamble="/home/philipp/diplomarbeit/textext_preamble.tex"
       ns0:text="$\\vec{p}$"
       word-spacing="normal"
       letter-spacing="normal"
       font-size-adjust="none"
       font-stretch="normal"
       font-weight="normal"
       font-variant="normal"
       font-style="normal"
       stroke-miterlimit="10.433"
       xml:space="preserve"
       transform="matrix(1,0,0,-1,233.21429,778.92857)"
       id="g4374"
       style="font-style:normal;font-variant:normal;font-weight:normal;font-stretch:normal;letter-spacing:normal;word-spacing:normal;text-anchor:start;fill:none;stroke:#000000;stroke-linecap:butt;stroke-linejoin:miter;stroke-miterlimit:10.43299961;stroke-opacity:1;stroke-dasharray:none;stroke-dashoffset:0"><polygon
         id="polygon4376"
         points="228.47,715.33 228.16,715.08 228.73,714.04 225.23,714.04 225.14,713.62 228.65,713.62 227.62,712.56 227.81,712.31 229.57,713.83 "
         style="fill:#000000;stroke-width:0" /><path
         id="path4378"
         d="m 224.58,707.16 0.09,-0.04 c 0.25,-0.07 0.4,-0.1 0.51,-0.1 l 0.31,0.46 c -0.31,0 -0.56,0.07 -0.81,0.23 l 0.17,1.05 c 0.22,1.28 1.29,2.58 2.11,2.58 0.26,0 0.38,-0.22 0.38,-0.68 0,-0.8 -0.4,-1.99 -0.92,-2.74 -0.2,-0.29 -0.52,-0.44 -0.93,-0.44 l -0.31,-0.46 c 0.56,0 1.7,0.72 2.13,1.35 0.41,0.6 0.75,1.7 0.75,2.44 0,0.67 -0.23,1.1 -0.59,1.1 -0.42,0 -0.94,-0.25 -1.46,-0.72 -0.41,-0.35 -0.61,-0.61 -0.97,-1.19 l 0.24,1.18 c 0.03,0.17 0.05,0.32 0.05,0.43 0,0.19 -0.08,0.3 -0.22,0.3 -0.21,0 -0.58,-0.2 -1.32,-0.73 l -0.28,-0.2 0.07,-0.2 0.32,0.21 c 0.28,0.18 0.39,0.23 0.48,0.23 0.1,0 0.17,-0.09 0.17,-0.23 0,-0.08 -0.02,-0.28 -0.04,-0.38 l -0.58,-3.41 c -0.1,-0.59 -0.29,-1.5 -0.49,-2.39 l -0.08,-0.37 0.07,-0.06 c 0.21,0.07 0.41,0.12 0.73,0.17 z"
         inkscape:connector-curvature="0"
         style="fill:#000000;stroke-width:0" /></g>    <g
       id="g4546"
       transform="matrix(1,0,0,-1,176.07143,783.92857)"
       xml:space="preserve"
       stroke-miterlimit="10.433"
       font-style="normal"
       font-variant="normal"
       font-weight="normal"
       font-stretch="normal"
       font-size-adjust="none"
       letter-spacing="normal"
       word-spacing="normal"
       ns0:text="$d_1$"
       ns0:preamble="/home/philipp/diplomarbeit/textext_preamble.tex"
       style="font-style:normal;font-variant:normal;font-weight:normal;font-stretch:normal;letter-spacing:normal;word-spacing:normal;text-anchor:start;fill:none;stroke:#000000;stroke-linecap:butt;stroke-linejoin:miter;stroke-miterlimit:10.43299961;stroke-opacity:1;stroke-dasharray:none;stroke-dashoffset:0"><path
         d="m 228.24,714.3 -0.12,0.11 c -0.52,-0.26 -0.88,-0.35 -1.59,-0.42 l -0.04,-0.21 h 0.47 c 0.24,0 0.34,-0.07 0.34,-0.24 0,-0.08 -0.01,-0.17 -0.02,-0.24 L 227,711.77 c -0.29,0.09 -0.56,0.14 -0.81,0.14 -0.69,0 -1.62,-0.71 -2.08,-1.58 -0.31,-0.57 -0.51,-1.52 -0.51,-2.35 0,-0.65 0.15,-0.96 0.44,-0.96 0.27,0 0.64,0.16 0.97,0.43 l -0.44,0.26 c -0.16,0 -0.25,0.14 -0.25,0.39 0,1.25 0.45,2.8 0.94,3.18 0.13,0.1 0.32,0.15 0.59,0.15 0.44,0 0.73,-0.06 1.05,-0.23 l -0.11,-0.59 c -0.18,-0.87 -0.67,-1.75 -1.29,-2.33 -0.35,-0.33 -0.74,-0.57 -0.93,-0.57 l 0.44,-0.26 c 0.54,0.44 0.87,0.83 1.54,1.83 l -0.23,-0.9 c -0.11,-0.44 -0.16,-0.76 -0.16,-1.02 0,-0.2 0.09,-0.32 0.26,-0.32 0.17,0 0.4,0.12 0.74,0.36 l 0.81,0.6 -0.1,0.19 -0.44,-0.31 c -0.14,-0.1 -0.3,-0.17 -0.39,-0.17 -0.08,0 -0.14,0.09 -0.14,0.23 0,0.08 0.01,0.17 0.08,0.46 z"
         id="path4548"
         inkscape:connector-curvature="0"
         style="fill:#000000;stroke-width:0" /><path
         d="m 228.88,709.49 h 0.07 l 0.9,0.4 c 0,0.01 0.01,0.01 0.02,0.01 0.04,0 0.05,-0.06 0.05,-0.23 v -3.37 c 0,-0.36 -0.07,-0.44 -0.45,-0.46 l -0.39,-0.02 v -0.21 c 1.07,0.02 1.07,0.02 1.15,0.02 0.09,0 0.24,0 0.48,-0.01 0.08,0 0.33,0 0.61,-0.01 v 0.21 l -0.36,0.02 c -0.38,0.02 -0.45,0.1 -0.45,0.46 v 4.12 l -0.1,0.04 c -0.45,-0.24 -0.95,-0.45 -1.58,-0.67 z"
         id="path4550"
         inkscape:connector-curvature="0"
         style="fill:#000000;stroke-width:0" /></g>    <g
       ns0:preamble="/home/philipp/diplomarbeit/textext_preamble.tex"
       ns0:text="$d_2$"
       word-spacing="normal"
       letter-spacing="normal"
       font-size-adjust="none"
       font-stretch="normal"
       font-weight="normal"
       font-variant="normal"
       font-style="normal"
       stroke-miterlimit="10.433"
       xml:space="preserve"
       transform="matrix(1,0,0,-1,250.35714,786.42857)"
       id="g4700"
       style="font-style:normal;font-variant:normal;font-weight:normal;font-stretch:normal;letter-spacing:normal;word-spacing:normal;text-anchor:start;fill:none;stroke:#000000;stroke-linecap:butt;stroke-linejoin:miter;stroke-miterlimit:10.43299961;stroke-opacity:1;stroke-dasharray:none;stroke-dashoffset:0"><path
         id="path4702"
         d="m 228.24,714.3 -0.12,0.11 c -0.52,-0.26 -0.88,-0.35 -1.59,-0.42 l -0.04,-0.21 h 0.47 c 0.24,0 0.34,-0.07 0.34,-0.24 0,-0.08 -0.01,-0.17 -0.02,-0.24 L 227,711.77 c -0.29,0.09 -0.56,0.14 -0.81,0.14 -0.69,0 -1.62,-0.71 -2.08,-1.58 -0.31,-0.57 -0.51,-1.52 -0.51,-2.35 0,-0.65 0.15,-0.96 0.44,-0.96 0.27,0 0.64,0.16 0.97,0.43 l -0.44,0.26 c -0.16,0 -0.25,0.14 -0.25,0.39 0,1.25 0.45,2.8 0.94,3.18 0.13,0.1 0.32,0.15 0.59,0.15 0.44,0 0.73,-0.06 1.05,-0.23 l -0.11,-0.59 c -0.18,-0.87 -0.67,-1.75 -1.29,-2.33 -0.35,-0.33 -0.74,-0.57 -0.93,-0.57 l 0.44,-0.26 c 0.54,0.44 0.87,0.83 1.54,1.83 l -0.23,-0.9 c -0.11,-0.44 -0.16,-0.76 -0.16,-1.02 0,-0.2 0.09,-0.32 0.26,-0.32 0.17,0 0.4,0.12 0.74,0.36 l 0.81,0.6 -0.1,0.19 -0.44,-0.31 c -0.14,-0.1 -0.3,-0.17 -0.39,-0.17 -0.08,0 -0.14,0.09 -0.14,0.23 0,0.08 0.01,0.17 0.08,0.46 z"
         inkscape:connector-curvature="0"
         style="fill:#000000;stroke-width:0" /><path
         id="path4704"
         d="m 228.52,705.79 v -0.18 c 1.31,0.02 1.31,0.02 1.56,0.02 0.25,0 0.25,0 1.59,-0.02 -0.01,0.15 -0.01,0.22 -0.01,0.31 0,0.09 0,0.16 0.01,0.32 -0.8,-0.04 -1.12,-0.05 -2.41,-0.07 l 1.27,1.34 c 0.68,0.71 0.88,1.1 0.88,1.62 0,0.8 -0.54,1.29 -1.42,1.29 -0.5,0 -0.85,-0.14 -1.19,-0.49 l -0.12,-0.94 h 0.21 l 0.09,0.32 c 0.11,0.4 0.36,0.58 0.83,0.58 0.59,0 0.98,-0.38 0.98,-0.97 0,-0.52 -0.3,-1.04 -1.08,-1.87 z"
         inkscape:connector-curvature="0"
         style="fill:#000000;stroke-width:0" /></g>    <g
       id="g4860"
       transform="matrix(1,0,0,-1,242.5,848.57143)"
       xml:space="preserve"
       stroke-miterlimit="10.433"
       font-style="normal"
       font-variant="normal"
       font-weight="normal"
       font-stretch="normal"
       font-size-adjust="none"
       letter-spacing="normal"
       word-spacing="normal"
       ns0:text="$d_3$"
       ns0:preamble="/home/philipp/diplomarbeit/textext_preamble.tex"
       style="font-style:normal;font-variant:normal;font-weight:normal;font-stretch:normal;letter-spacing:normal;word-spacing:normal;text-anchor:start;fill:none;stroke:#000000;stroke-linecap:butt;stroke-linejoin:miter;stroke-miterlimit:10.43299961;stroke-opacity:1;stroke-dasharray:none;stroke-dashoffset:0"><path
         d="m 228.24,714.3 -0.12,0.11 c -0.52,-0.26 -0.88,-0.35 -1.59,-0.42 l -0.04,-0.21 h 0.47 c 0.24,0 0.34,-0.07 0.34,-0.24 0,-0.08 -0.01,-0.17 -0.02,-0.24 L 227,711.77 c -0.29,0.09 -0.56,0.14 -0.81,0.14 -0.69,0 -1.62,-0.71 -2.08,-1.58 -0.31,-0.57 -0.51,-1.52 -0.51,-2.35 0,-0.65 0.15,-0.96 0.44,-0.96 0.27,0 0.64,0.16 0.97,0.43 l -0.44,0.26 c -0.16,0 -0.25,0.14 -0.25,0.39 0,1.25 0.45,2.8 0.94,3.18 0.13,0.1 0.32,0.15 0.59,0.15 0.44,0 0.73,-0.06 1.05,-0.23 l -0.11,-0.59 c -0.18,-0.87 -0.67,-1.75 -1.29,-2.33 -0.35,-0.33 -0.74,-0.57 -0.93,-0.57 l 0.44,-0.26 c 0.54,0.44 0.87,0.83 1.54,1.83 l -0.23,-0.9 c -0.11,-0.44 -0.16,-0.76 -0.16,-1.02 0,-0.2 0.09,-0.32 0.26,-0.32 0.17,0 0.4,0.12 0.74,0.36 l 0.81,0.6 -0.1,0.19 -0.44,-0.31 c -0.14,-0.1 -0.3,-0.17 -0.39,-0.17 -0.08,0 -0.14,0.09 -0.14,0.23 0,0.08 0.01,0.17 0.08,0.46 z"
         id="path4862"
         inkscape:connector-curvature="0"
         style="fill:#000000;stroke-width:0" /><path
         d="m 228.71,709.09 h 0.22 l 0.12,0.39 c 0.08,0.24 0.52,0.48 0.88,0.48 0.45,0 0.82,-0.37 0.82,-0.81 0,-0.52 -0.41,-0.96 -0.9,-0.96 -0.06,0 -0.14,0.01 -0.23,0.01 l -0.1,0.01 -0.08,-0.37 0.05,-0.04 c 0.26,0.12 0.39,0.15 0.58,0.15 0.58,0 0.91,-0.36 0.91,-1 0,-0.71 -0.42,-1.17 -1.07,-1.17 -0.32,0 -0.61,0.1 -0.81,0.3 -0.17,0.15 -0.26,0.31 -0.39,0.68 l -0.19,-0.06 c 0.14,-0.43 0.2,-0.68 0.24,-1.03 0.37,-0.12 0.68,-0.18 0.93,-0.18 0.56,0 1.2,0.31 1.58,0.78 0.24,0.29 0.36,0.59 0.36,0.92 0,0.33 -0.14,0.62 -0.39,0.8 -0.17,0.12 -0.33,0.18 -0.68,0.24 0.56,0.43 0.76,0.75 0.76,1.16 0,0.62 -0.51,1.03 -1.28,1.03 -0.48,0 -0.79,-0.13 -1.13,-0.46 z"
         id="path4864"
         inkscape:connector-curvature="0"
         style="fill:#000000;stroke-width:0" /></g>    <g
       ns0:preamble="/home/philipp/diplomarbeit/textext_preamble.tex"
       ns0:text="$d_4$"
       word-spacing="normal"
       letter-spacing="normal"
       font-size-adjust="none"
       font-stretch="normal"
       font-weight="normal"
       font-variant="normal"
       font-style="normal"
       stroke-miterlimit="10.433"
       xml:space="preserve"
       transform="matrix(1,0,0,-1,190,850.71429)"
       id="g5026"
       style="font-style:normal;font-variant:normal;font-weight:normal;font-stretch:normal;letter-spacing:normal;word-spacing:normal;text-anchor:start;fill:none;stroke:#000000;stroke-linecap:butt;stroke-linejoin:miter;stroke-miterlimit:10.43299961;stroke-opacity:1;stroke-dasharray:none;stroke-dashoffset:0"><path
         id="path5028"
         d="m 228.24,714.3 -0.12,0.11 c -0.52,-0.26 -0.88,-0.35 -1.59,-0.42 l -0.04,-0.21 h 0.47 c 0.24,0 0.34,-0.07 0.34,-0.24 0,-0.08 -0.01,-0.17 -0.02,-0.24 L 227,711.77 c -0.29,0.09 -0.56,0.14 -0.81,0.14 -0.69,0 -1.62,-0.71 -2.08,-1.58 -0.31,-0.57 -0.51,-1.52 -0.51,-2.35 0,-0.65 0.15,-0.96 0.44,-0.96 0.27,0 0.64,0.16 0.97,0.43 l -0.44,0.26 c -0.16,0 -0.25,0.14 -0.25,0.39 0,1.25 0.45,2.8 0.94,3.18 0.13,0.1 0.32,0.15 0.59,0.15 0.44,0 0.73,-0.06 1.05,-0.23 l -0.11,-0.59 c -0.18,-0.87 -0.67,-1.75 -1.29,-2.33 -0.35,-0.33 -0.74,-0.57 -0.93,-0.57 l 0.44,-0.26 c 0.54,0.44 0.87,0.83 1.54,1.83 l -0.23,-0.9 c -0.11,-0.44 -0.16,-0.76 -0.16,-1.02 0,-0.2 0.09,-0.32 0.26,-0.32 0.17,0 0.4,0.12 0.74,0.36 l 0.81,0.6 -0.1,0.19 -0.44,-0.31 c -0.14,-0.1 -0.3,-0.17 -0.39,-0.17 -0.08,0 -0.14,0.09 -0.14,0.23 0,0.08 0.01,0.17 0.08,0.46 z"
         inkscape:connector-curvature="0"
         style="fill:#000000;stroke-width:0" /><path
         id="path5030"
         d="m 230.36,706.89 v 0.45 h -1.49 l 1.49,2.44 v -2.44 -0.45 -0.52 c 0,-0.42 -0.07,-0.52 -0.41,-0.53 l -0.44,-0.02 v -0.21 c 0.93,0.02 0.93,0.02 1.1,0.02 0.16,0 0.16,0 1.09,-0.02 v 0.21 l -0.33,0.02 c -0.35,0.02 -0.42,0.11 -0.42,0.53 v 0.52 c 0.41,0 0.56,-0.01 0.75,-0.03 v 0.49 c -0.33,-0.02 -0.46,-0.02 -0.56,-0.01 h -0.02 -0.17 v 0.96 c 0,1.24 0.01,1.84 0.05,2.12 l -0.09,0.04 -0.51,-0.19 -1.97,-3.22 0.07,-0.16 z"
         inkscape:connector-curvature="0"
         style="fill:#000000;stroke-width:0" /></g>  </g>
</svg>
