<?xml version="1.0" encoding="UTF-8" standalone="no"?>
<!-- Created with Inkscape (http://www.inkscape.org/) -->

<svg
   xmlns:ns0="http://www.iki.fi/pav/software/textext/"
   xmlns:dc="http://purl.org/dc/elements/1.1/"
   xmlns:cc="http://creativecommons.org/ns#"
   xmlns:rdf="http://www.w3.org/1999/02/22-rdf-syntax-ns#"
   xmlns:svg="http://www.w3.org/2000/svg"
   xmlns="http://www.w3.org/2000/svg"
   xmlns:sodipodi="http://sodipodi.sourceforge.net/DTD/sodipodi-0.dtd"
   xmlns:inkscape="http://www.inkscape.org/namespaces/inkscape"
   width="744.09448819"
   height="1052.3622047"
   id="svg3938"
   version="1.1"
   inkscape:version="0.48.3.1 r9886"
   sodipodi:docname="New document 8">
  <sodipodi:namedview
     id="base"
     pagecolor="#ffffff"
     bordercolor="#666666"
     borderopacity="1.0"
     inkscape:pageopacity="0.0"
     inkscape:pageshadow="2"
     inkscape:zoom="1.4142136"
     inkscape:cx="354.63506"
     inkscape:cy="834.55325"
     inkscape:document-units="px"
     inkscape:current-layer="layer1"
     showgrid="false"
     inkscape:window-width="1918"
     inkscape:window-height="1059"
     inkscape:window-x="0"
     inkscape:window-y="0"
     inkscape:window-maximized="0"
     showguides="true"
     inkscape:guide-bbox="true" />
  <defs
     id="defs3940">
    <marker
       inkscape:stockid="Arrow1Send"
       orient="auto"
       refY="0.0"
       refX="0.0"
       id="Arrow1Send"
       style="overflow:visible;">
      <path
         id="path4521"
         d="M 0.0,0.0 L 5.0,-5.0 L -12.5,0.0 L 5.0,5.0 L 0.0,0.0 z "
         style="fill-rule:evenodd;stroke:#000000;stroke-width:1.0pt;"
         transform="scale(0.2) rotate(180) translate(6,0)" />
    </marker>
    <marker
       inkscape:stockid="Arrow2Mend"
       orient="auto"
       refY="0.0"
       refX="0.0"
       id="Arrow2Mend"
       style="overflow:visible;">
      <path
         id="path4533"
         style="fill-rule:evenodd;stroke-width:0.62500000;stroke-linejoin:round;"
         d="M 8.7185878,4.0337352 L -2.2072895,0.016013256 L 8.7185884,-4.0017078 C 6.9730900,-1.6296469 6.9831476,1.6157441 8.7185878,4.0337352 z "
         transform="scale(0.6) rotate(180) translate(0,0)" />
    </marker>
    <marker
       inkscape:stockid="Arrow1Lend"
       orient="auto"
       refY="0.0"
       refX="0.0"
       id="Arrow1Lend"
       style="overflow:visible;">
      <path
         id="path4509"
         d="M 0.0,0.0 L 5.0,-5.0 L -12.5,0.0 L 5.0,5.0 L 0.0,0.0 z "
         style="fill-rule:evenodd;stroke:#000000;stroke-width:1.0pt;"
         transform="scale(0.8) rotate(180) translate(12.5,0)" />
    </marker>
    <marker
       inkscape:stockid="Arrow2Mend"
       orient="auto"
       refY="0"
       refX="0"
       id="Arrow2Mend-4"
       style="overflow:visible">
      <path
         inkscape:connector-curvature="0"
         id="path4533-7"
         style="fill-rule:evenodd;stroke-width:0.625;stroke-linejoin:round"
         d="M 8.7185878,4.0337352 -2.2072895,0.01601326 8.7185884,-4.0017078 c -1.7454984,2.3720609 -1.7354408,5.6174519 -6e-7,8.035443 z"
         transform="scale(-0.6,-0.6)" />
    </marker>
    <marker
       inkscape:stockid="Arrow2Mend"
       orient="auto"
       refY="0"
       refX="0"
       id="Arrow2Mend-2"
       style="overflow:visible">
      <path
         inkscape:connector-curvature="0"
         id="path4533-4"
         style="fill-rule:evenodd;stroke-width:0.625;stroke-linejoin:round"
         d="M 8.7185878,4.0337352 -2.2072895,0.01601326 8.7185884,-4.0017078 c -1.7454984,2.3720609 -1.7354408,5.6174519 -6e-7,8.035443 z"
         transform="scale(-0.6,-0.6)" />
    </marker>
    <marker
       inkscape:stockid="Arrow2Mend"
       orient="auto"
       refY="0"
       refX="0"
       id="Arrow2Mend-3"
       style="overflow:visible">
      <path
         inkscape:connector-curvature="0"
         id="path4533-6"
         style="fill-rule:evenodd;stroke-width:0.625;stroke-linejoin:round"
         d="M 8.7185878,4.0337352 -2.2072895,0.01601326 8.7185884,-4.0017078 c -1.7454984,2.3720609 -1.7354408,5.6174519 -6e-7,8.035443 z"
         transform="scale(-0.6,-0.6)" />
    </marker>
    <marker
       inkscape:stockid="Arrow2Mend"
       orient="auto"
       refY="0"
       refX="0"
       id="Arrow2Mend-5"
       style="overflow:visible">
      <path
         inkscape:connector-curvature="0"
         id="path4533-71"
         style="fill-rule:evenodd;stroke-width:0.625;stroke-linejoin:round"
         d="M 8.7185878,4.0337352 -2.2072895,0.01601326 8.7185884,-4.0017078 c -1.7454984,2.3720609 -1.7354408,5.6174519 -6e-7,8.035443 z"
         transform="scale(-0.6,-0.6)" />
    </marker>
    <marker
       inkscape:stockid="Arrow2Mend"
       orient="auto"
       refY="0"
       refX="0"
       id="marker5198"
       style="overflow:visible">
      <path
         inkscape:connector-curvature="0"
         id="path5200"
         style="fill-rule:evenodd;stroke-width:0.625;stroke-linejoin:round"
         d="M 8.7185878,4.0337352 -2.2072895,0.01601326 8.7185884,-4.0017078 c -1.7454984,2.3720609 -1.7354408,5.6174519 -6e-7,8.035443 z"
         transform="scale(-0.6,-0.6)" />
    </marker>
    <marker
       inkscape:stockid="Arrow2Mend"
       orient="auto"
       refY="0"
       refX="0"
       id="marker5202"
       style="overflow:visible">
      <path
         inkscape:connector-curvature="0"
         id="path5204"
         style="fill-rule:evenodd;stroke-width:0.625;stroke-linejoin:round"
         d="M 8.7185878,4.0337352 -2.2072895,0.01601326 8.7185884,-4.0017078 c -1.7454984,2.3720609 -1.7354408,5.6174519 -6e-7,8.035443 z"
         transform="scale(-0.6,-0.6)" />
    </marker>
    <marker
       inkscape:stockid="Arrow2Mend"
       orient="auto"
       refY="0"
       refX="0"
       id="marker5206"
       style="overflow:visible">
      <path
         inkscape:connector-curvature="0"
         id="path5208"
         style="fill-rule:evenodd;stroke-width:0.625;stroke-linejoin:round"
         d="M 8.7185878,4.0337352 -2.2072895,0.01601326 8.7185884,-4.0017078 c -1.7454984,2.3720609 -1.7354408,5.6174519 -6e-7,8.035443 z"
         transform="scale(-0.6,-0.6)" />
    </marker>
    <marker
       inkscape:stockid="Arrow2Mend"
       orient="auto"
       refY="0"
       refX="0"
       id="marker5206-6"
       style="overflow:visible">
      <path
         inkscape:connector-curvature="0"
         id="path5208-4"
         style="fill-rule:evenodd;stroke-width:0.625;stroke-linejoin:round"
         d="M 8.7185878,4.0337352 -2.2072895,0.01601326 8.7185884,-4.0017078 c -1.7454984,2.3720609 -1.7354408,5.6174519 -6e-7,8.035443 z"
         transform="scale(-0.6,-0.6)" />
    </marker>
    <marker
       inkscape:stockid="Arrow2Mend"
       orient="auto"
       refY="0"
       refX="0"
       id="marker5206-2"
       style="overflow:visible">
      <path
         inkscape:connector-curvature="0"
         id="path5208-0"
         style="fill-rule:evenodd;stroke-width:0.625;stroke-linejoin:round"
         d="M 8.7185878,4.0337352 -2.2072895,0.01601326 8.7185884,-4.0017078 c -1.7454984,2.3720609 -1.7354408,5.6174519 -6e-7,8.035443 z"
         transform="scale(-0.6,-0.6)" />
    </marker>
    <marker
       inkscape:stockid="Arrow2Mend"
       orient="auto"
       refY="0"
       refX="0"
       id="marker5206-9"
       style="overflow:visible">
      <path
         inkscape:connector-curvature="0"
         id="path5208-1"
         style="fill-rule:evenodd;stroke-width:0.625;stroke-linejoin:round"
         d="M 8.7185878,4.0337352 -2.2072895,0.01601326 8.7185884,-4.0017078 c -1.7454984,2.3720609 -1.7354408,5.6174519 -6e-7,8.035443 z"
         transform="scale(-0.6,-0.6)" />
    </marker>
    <marker
       inkscape:stockid="Arrow2Mend"
       orient="auto"
       refY="0"
       refX="0"
       id="marker5206-60"
       style="overflow:visible">
      <path
         inkscape:connector-curvature="0"
         id="path5208-15"
         style="fill-rule:evenodd;stroke-width:0.625;stroke-linejoin:round"
         d="M 8.7185878,4.0337352 -2.2072895,0.01601326 8.7185884,-4.0017078 c -1.7454984,2.3720609 -1.7354408,5.6174519 -6e-7,8.035443 z"
         transform="scale(-0.6,-0.6)" />
    </marker>
  </defs>
  <metadata
     id="metadata3943">
    <rdf:RDF>
      <cc:Work
         rdf:about="">
        <dc:format>image/svg+xml</dc:format>
        <dc:type
           rdf:resource="http://purl.org/dc/dcmitype/StillImage" />
        <dc:title></dc:title>
      </cc:Work>
    </rdf:RDF>
  </metadata>
  <g
     id="layer1"
     inkscape:groupmode="layer"
     inkscape:label="Layer 1">
    <path
       style="fill:none;stroke:#000000;stroke-width:1px;stroke-linecap:butt;stroke-linejoin:miter;stroke-opacity:1;marker-end:url(#marker5206)"
       d="M 242.85714,221.21934 218.84106,189.59432"
       id="path5243-75"
       inkscape:connector-curvature="0"
       sodipodi:nodetypes="cc" />
    <rect
       y="177.71933"
       x="243.21429"
       height="218.57143"
       width="218.57143"
       id="rect3946"
       style="fill:#eeeeee;stroke:#000000;stroke-opacity:1;fill-opacity:1" />
    <g
       style="font-style:normal;font-variant:normal;font-weight:normal;font-stretch:normal;letter-spacing:normal;word-spacing:normal;text-anchor:start;fill:none;stroke:#000000;stroke-linecap:butt;stroke-linejoin:miter;stroke-miterlimit:10.43299961;stroke-opacity:1;stroke-dasharray:none;stroke-dashoffset:0"
       id="content"
       transform="matrix(1,0,0,-1,126.0618,972.88975)"
       xml:space="preserve"
       stroke-miterlimit="10.433"
       font-style="normal"
       font-variant="normal"
       font-weight="normal"
       font-stretch="normal"
       font-size-adjust="none"
       letter-spacing="normal"
       word-spacing="normal"
       ns0:text="$\\Omega$"
       ns0:preamble="/home/philipp/diplomarbeit/textext_preamble.tex"><path
         style="fill:#000000;stroke-width:0"
         inkscape:connector-curvature="0"
         d="m 231.3,708.57 -0.04,0.02 h -0.14 l -0.04,-0.02 c -0.13,-0.53 -0.13,-0.7 -0.72,-0.7 h -1.29 v 0.07 c 1.34,0.56 2.07,1.7 2.07,3.14 0,2.14 -1.56,3.04 -3.54,3.04 -2,0 -3.66,-0.83 -3.66,-3.04 0,-1.43 0.73,-2.58 2.06,-3.14 v -0.07 h -1.29 c -0.59,0 -0.59,0.18 -0.72,0.7 l -0.03,0.02 h -0.15 l -0.04,-0.02 c 0.07,-0.5 0.13,-1.01 0.18,-1.5 1.02,0.03 2.06,0.02 3.08,0.05 v 0.68 c -1.6,0.21 -2.05,1.66 -2.05,3.07 0,1.74 0.73,2.98 2.62,2.98 1.93,0 2.49,-1.32 2.49,-3.01 0,-1.4 -0.47,-2.83 -2.05,-3.04 v -0.68 c 1.02,-0.02 2.07,-0.02 3.09,-0.05 0.03,0.49 0.1,1 0.17,1.5 z"
         id="path3856" /></g>    <g
       ns0:preamble="/home/philipp/diplomarbeit/textext_preamble.tex"
       ns0:text="$\\partial \\Omega$"
       word-spacing="normal"
       letter-spacing="normal"
       font-size-adjust="none"
       font-stretch="normal"
       font-weight="normal"
       font-variant="normal"
       font-style="normal"
       stroke-miterlimit="10.433"
       xml:space="preserve"
       transform="matrix(1,0,0,-1,245.47728,895.96704)"
       id="g4485"
       style="font-style:normal;font-variant:normal;font-weight:normal;font-stretch:normal;letter-spacing:normal;word-spacing:normal;text-anchor:start;fill:none;stroke:#000000;stroke-linecap:butt;stroke-linejoin:miter;stroke-miterlimit:10.43299961;stroke-opacity:1;stroke-dasharray:none;stroke-dashoffset:0"><path
         id="path4487"
         d="m 228.58,712.12 -0.01,0.12 0,0.12 -0.01,0.11 -0.01,0.12 -0.02,0.11 -0.02,0.12 -0.02,0.11 -0.03,0.11 -0.03,0.11 -0.04,0.1 -0.04,0.11 -0.04,0.1 -0.05,0.1 -0.05,0.09 -0.06,0.09 -0.06,0.09 -0.06,0.09 -0.07,0.08 -0.07,0.08 -0.08,0.07 -0.08,0.07 -0.08,0.06 -0.09,0.06 -0.1,0.05 -0.09,0.05 -0.11,0.04 -0.1,0.04 -0.11,0.03 -0.12,0.02 -0.12,0.02 -0.12,0.01 -0.13,0 c -0.46,0 -0.91,-0.12 -1.35,-0.27 l 0.3,-0.51 c 0.37,0.17 0.77,0.32 1.19,0.32 0.89,0 1.16,-0.75 1.16,-1.52 0,-0.72 -0.19,-1.38 -0.41,-2.06 -0.42,0.4 -0.77,0.66 -1.36,0.66 -1.27,0 -2.47,-1.48 -2.47,-2.69 0,-0.88 0.62,-1.5 1.49,-1.5 l -0.05,0.3 c -0.48,0 -0.64,0.43 -0.64,0.85 0,1 0.83,2.59 1.98,2.59 0.4,0 0.69,-0.23 0.92,-0.55 h 0 c -0.34,-0.92 -1.03,-2.89 -2.26,-2.89 l 0.05,-0.3 c 2.15,0 3.47,3.3 3.47,5.09 z"
         inkscape:connector-curvature="0"
         style="fill:#000000;stroke-width:0" /><path
         id="path4489"
         d="m 236.65,708.57 -0.04,0.02 h -0.14 l -0.04,-0.02 c -0.13,-0.53 -0.13,-0.7 -0.72,-0.7 h -1.29 v 0.07 c 1.34,0.56 2.07,1.7 2.07,3.14 0,2.14 -1.56,3.04 -3.54,3.04 -2,0 -3.66,-0.83 -3.66,-3.04 0,-1.43 0.73,-2.58 2.06,-3.14 v -0.07 h -1.28 c -0.6,0 -0.6,0.18 -0.73,0.7 l -0.03,0.02 h -0.15 l -0.04,-0.02 c 0.07,-0.5 0.13,-1.01 0.18,-1.5 1.02,0.03 2.06,0.02 3.08,0.05 v 0.68 c -1.6,0.21 -2.05,1.66 -2.05,3.07 0,1.74 0.73,2.98 2.62,2.98 1.93,0 2.49,-1.32 2.49,-3.01 0,-1.4 -0.47,-2.83 -2.05,-3.04 v -0.68 c 1.02,-0.02 2.07,-0.02 3.09,-0.05 0.03,0.49 0.1,1 0.17,1.5 z"
         inkscape:connector-curvature="0"
         style="fill:#000000;stroke-width:0" /></g>    <path
       style="fill:none;stroke:#000000;stroke-width:1px;stroke-linecap:butt;stroke-linejoin:miter;stroke-opacity:1;marker-end:url(#marker5206)"
       d="m 461.78572,221.21934 -39.1534,-23.73858"
       id="path5243"
       inkscape:connector-curvature="0"
       sodipodi:nodetypes="cc" />
    <path
       style="fill:none;stroke:#000000;stroke-width:1px;stroke-linecap:butt;stroke-linejoin:miter;stroke-opacity:1;marker-end:url(#marker5206)"
       d="M 461.78572,265.07645 420.10694,245.37848"
       id="path5243-7"
       inkscape:connector-curvature="0"
       sodipodi:nodetypes="cc" />
    <path
       style="fill:none;stroke:#000000;stroke-width:1px;stroke-linecap:butt;stroke-linejoin:miter;stroke-opacity:1;marker-end:url(#marker5206)"
       d="M 461.78572,308.93357 416.06633,292.26605"
       id="path5243-0"
       inkscape:connector-curvature="0"
       sodipodi:nodetypes="cc" />
    <path
       style="fill:none;stroke:#000000;stroke-width:1px;stroke-linecap:butt;stroke-linejoin:miter;stroke-opacity:1;marker-end:url(#marker5206)"
       d="M 461.78572,352.79075 416.57141,328.04201"
       id="path5243-9"
       inkscape:connector-curvature="0"
       sodipodi:nodetypes="cc" />
    <path
       style="fill:none;stroke:#000000;stroke-width:1px;stroke-linecap:butt;stroke-linejoin:miter;stroke-opacity:1;marker-end:url(#marker5206)"
       d="m 242.85714,265.07645 -27.5,-32.85714"
       id="path5243-7-6"
       inkscape:connector-curvature="0"
       sodipodi:nodetypes="cc" />
    <path
       style="fill:none;stroke:#000000;stroke-width:1px;stroke-linecap:butt;stroke-linejoin:miter;stroke-opacity:1;marker-end:url(#marker5206)"
       d="M 242.85714,308.93357 216.42857,277.14786"
       id="path5243-0-5"
       inkscape:connector-curvature="0"
       sodipodi:nodetypes="cc" />
    <path
       style="fill:none;stroke:#000000;stroke-width:1px;stroke-linecap:butt;stroke-linejoin:miter;stroke-opacity:1;marker-end:url(#marker5206)"
       d="M 242.85714,352.79075 214.64286,316.36218"
       id="path5243-9-4"
       inkscape:connector-curvature="0"
       sodipodi:nodetypes="cc" />
    <path
       style="fill:none;stroke:#000000;stroke-width:1px;stroke-linecap:butt;stroke-linejoin:miter;stroke-opacity:1;marker-end:url(#marker5206)"
       d="m 418.64284,177.36218 -21.50908,-40.4543"
       id="path5243-75-2"
       inkscape:connector-curvature="0"
       sodipodi:nodetypes="cc" />
    <path
       style="fill:none;stroke:#000000;stroke-width:1px;stroke-linecap:butt;stroke-linejoin:miter;stroke-opacity:1;marker-end:url(#marker5206)"
       d="M 374.78573,177.36218 360.28119,135.78567"
       id="path5243-7-6-3"
       inkscape:connector-curvature="0"
       sodipodi:nodetypes="cc" />
    <path
       style="fill:none;stroke:#000000;stroke-width:1px;stroke-linecap:butt;stroke-linejoin:miter;stroke-opacity:1;marker-end:url(#marker5206)"
       d="M 330.92861,177.36218 314.33724,127.63266"
       id="path5243-0-5-8"
       inkscape:connector-curvature="0"
       sodipodi:nodetypes="cc" />
    <path
       style="fill:none;stroke:#000000;stroke-width:1px;stroke-linecap:butt;stroke-linejoin:miter;stroke-opacity:1;marker-end:url(#marker5206)"
       d="M 287.07143,177.36218 262.76124,131.43343"
       id="path5243-9-4-8"
       inkscape:connector-curvature="0"
       sodipodi:nodetypes="cc" />
    <path
       style="fill:none;stroke:#000000;stroke-width:1px;stroke-linecap:butt;stroke-linejoin:miter;stroke-opacity:1;marker-end:url(#marker5206)"
       d="m 418.64284,396.29075 -29.7995,-34.60771"
       id="path5243-75-2-2"
       inkscape:connector-curvature="0"
       sodipodi:nodetypes="cc" />
    <path
       style="fill:none;stroke:#000000;stroke-width:1px;stroke-linecap:butt;stroke-linejoin:miter;stroke-opacity:1;marker-end:url(#marker5206)"
       d="m 374.78573,396.29075 -29.29442,-39.1534"
       id="path5243-7-6-3-0"
       inkscape:connector-curvature="0"
       sodipodi:nodetypes="cc" />
    <path
       style="fill:none;stroke:#000000;stroke-width:1px;stroke-linecap:butt;stroke-linejoin:miter;stroke-opacity:1;marker-end:url(#marker5206)"
       d="M 330.92861,396.29075 306.17987,357.64243"
       id="path5243-0-5-8-1"
       inkscape:connector-curvature="0"
       sodipodi:nodetypes="cc" />
    <path
       style="fill:none;stroke:#000000;stroke-width:1px;stroke-linecap:butt;stroke-linejoin:miter;stroke-opacity:1;marker-end:url(#marker5206)"
       d="M 287.07143,396.29075 273.93945,361.17796"
       id="path5243-9-4-8-8"
       inkscape:connector-curvature="0"
       sodipodi:nodetypes="cc" />
    <path
       style="fill:none;stroke:#000000;stroke-width:1px;stroke-linecap:butt;stroke-linejoin:miter;stroke-opacity:1;marker-end:url(#marker5206)"
       d="M 461.78572,396.29075 419.35766,362.99597"
       id="path5243-9-42"
       inkscape:connector-curvature="0"
       sodipodi:nodetypes="cc" />
    <path
       style="fill:none;stroke:#000000;stroke-width:1px;stroke-linecap:butt;stroke-linejoin:miter;stroke-opacity:1;marker-end:url(#marker5206)"
       d="M 461.78572,177.36218 432.45375,135.23074"
       id="path5243-96"
       inkscape:connector-curvature="0"
       sodipodi:nodetypes="cc" />
    <path
       style="fill:none;stroke:#000000;stroke-width:1px;stroke-linecap:butt;stroke-linejoin:miter;stroke-opacity:1;marker-end:url(#marker5206)"
       d="m 242.85714,177.36218 -22.2609,-42.63652"
       id="path5243-96-8"
       inkscape:connector-curvature="0"
       sodipodi:nodetypes="cc" />
    <path
       style="fill:none;stroke:#000000;stroke-width:1px;stroke-linecap:butt;stroke-linejoin:miter;stroke-opacity:1;marker-end:url(#marker5206)"
       d="M 242.85714,396.29075 209.01703,358.65258"
       id="path5243-9-4-8-8-5"
       inkscape:connector-curvature="0"
       sodipodi:nodetypes="cc" />
    <g
       id="g8020"
       transform="translate(7.1428572,-2.1428571)">
      <path
         sodipodi:nodetypes="ccc"
         inkscape:connector-curvature="0"
         id="path5681"
         d="M 503.12471,417.80429 C 449.61955,351.74747 353.69811,318.4653 311.44163,293.61403 264.32799,266.76043 210.29708,200.29447 195.26757,163.51858"
         style="fill:none;stroke:#5c5c5c;stroke-width:11.69999981;stroke-linecap:square;stroke-linejoin:miter;stroke-miterlimit:4;stroke-opacity:1;stroke-dasharray:46.79999924, 46.79999924;stroke-dashoffset:0;marker-start:none;marker-mid:none;marker-end:none" />
      <path
         sodipodi:nodetypes="ccccc"
         inkscape:connector-curvature="0"
         id="path7976-0"
         d="m 286.61602,274.46738 15.46639,37.03912 4.84903,-21.61649 18.4568,-9.08306 z"
         style="fill:#5c5c5c;fill-opacity:1;stroke:none" />
      <path
         sodipodi:nodetypes="ccccc"
         inkscape:connector-curvature="0"
         id="path7976-2"
         d="m 184.10659,142.60981 -1.97325,40.09005 13.67725,-17.42752 20.56912,-0.25894 z"
         style="fill:#5c5c5c;fill-opacity:1;stroke:none" />
      <path
         sodipodi:nodetypes="ccccc"
         inkscape:connector-curvature="0"
         id="path7976-4"
         d="m 450.03073,365.19321 10.74484,38.67369 7.49709,-20.84657 19.44227,-6.71963 z"
         style="fill:#5c5c5c;fill-opacity:1;stroke:none" />
    </g>
  </g>
</svg>
