<?xml version="1.0" encoding="UTF-8" standalone="no"?>
<!-- Created with Inkscape (http://www.inkscape.org/) -->

<svg
   xmlns:dc="http://purl.org/dc/elements/1.1/"
   xmlns:cc="http://creativecommons.org/ns#"
   xmlns:rdf="http://www.w3.org/1999/02/22-rdf-syntax-ns#"
   xmlns:svg="http://www.w3.org/2000/svg"
   xmlns="http://www.w3.org/2000/svg"
   xmlns:sodipodi="http://sodipodi.sourceforge.net/DTD/sodipodi-0.dtd"
   xmlns:inkscape="http://www.inkscape.org/namespaces/inkscape"
   width="744.09448819"
   height="1052.3622047"
   id="svg8157"
   version="1.1"
   inkscape:version="0.48.3.1 r9886"
   sodipodi:docname="New document 71">
  <defs
     id="defs8159">
    <marker
       inkscape:stockid="Arrow1Lend"
       orient="auto"
       refY="0.0"
       refX="0.0"
       id="Arrow1Lend"
       style="overflow:visible;">
      <path
         id="path8795"
         d="M 0.0,0.0 L 5.0,-5.0 L -12.5,0.0 L 5.0,5.0 L 0.0,0.0 z "
         style="fill-rule:evenodd;stroke:#000000;stroke-width:1.0pt;"
         transform="scale(0.8) rotate(180) translate(12.5,0)" />
    </marker>
  </defs>
  <sodipodi:namedview
     id="base"
     pagecolor="#ffffff"
     bordercolor="#666666"
     borderopacity="1.0"
     inkscape:pageopacity="0.0"
     inkscape:pageshadow="2"
     inkscape:zoom="1.979899"
     inkscape:cx="391.90858"
     inkscape:cy="635.12743"
     inkscape:document-units="px"
     inkscape:current-layer="layer1"
     showgrid="false"
     inkscape:window-width="1918"
     inkscape:window-height="1059"
     inkscape:window-x="0"
     inkscape:window-y="0"
     inkscape:window-maximized="0" />
  <metadata
     id="metadata8162">
    <rdf:RDF>
      <cc:Work
         rdf:about="">
        <dc:format>image/svg+xml</dc:format>
        <dc:type
           rdf:resource="http://purl.org/dc/dcmitype/StillImage" />
        <dc:title></dc:title>
      </cc:Work>
    </rdf:RDF>
  </metadata>
  <g
     inkscape:label="Layer 1"
     inkscape:groupmode="layer"
     id="layer1">
    <path
       style="fill:#a7a7a7;stroke:#000000;stroke-width:1px;stroke-linecap:butt;stroke-linejoin:miter;stroke-opacity:1;fill-opacity:1"
       d="m 364.66507,330.60819 c -10.24082,-8.38286 0.95938,-22.55798 -1.13833,-33.34672 8.95051,-12.6812 16.20742,9.48482 26.49441,2.66238 9.29339,-5.95118 17.57776,1.6958 12.31233,11.20993 0.44505,9.52155 -3.89005,20.26677 -15.13089,16.48396 -7.79184,-0.43173 -14.82725,3.6581 -22.53752,2.99045 z"
       id="path8265"
       inkscape:connector-curvature="0" />
    <path
       style="fill:none;stroke:#000000;stroke-width:1px;stroke-linecap:butt;stroke-linejoin:miter;stroke-opacity:1;marker-end:url(#Arrow1Lend)"
       d="m 381.33259,490.21229 0,-233.34524"
       id="path8786"
       inkscape:connector-curvature="0" />
    <path
       style="fill:none;stroke:#000000;stroke-width:2.1;stroke-linecap:butt;stroke-linejoin:miter;stroke-opacity:1;stroke-miterlimit:4;stroke-dasharray:none"
       d="m 401.78818,317.22367 c 4.01029,-0.0453 17.48767,-0.0647 17.48767,10.61421 0,9.53643 -17.53893,20.93009 -36.71244,23.27827 -19.15271,2.34562 -36.96497,3.39748 -36.96497,-5.22941 0,-14.29807 73.67741,-14.19302 73.67741,7.19734"
       id="path9344"
       inkscape:connector-curvature="0"
       sodipodi:nodetypes="ccscc" />
    <path
       style="fill:none;stroke:#000000;stroke-width:2.1;stroke-linecap:butt;stroke-linejoin:miter;stroke-opacity:1;stroke-miterlimit:4;stroke-dasharray:none"
       d="m 419.27585,352.90229 c 0,9.53643 -17.53893,20.93009 -36.71244,23.27827 -19.15271,2.34562 -36.96497,3.39748 -36.96497,-5.22941 0,-14.29807 73.67741,-14.19302 73.67741,7.19734"
       id="path9344-1"
       inkscape:connector-curvature="0"
       sodipodi:nodetypes="cscc" />
    <path
       style="fill:none;stroke:#000000;stroke-width:2.1;stroke-linecap:butt;stroke-linejoin:miter;stroke-opacity:1;stroke-miterlimit:4;stroke-dasharray:none"
       d="m 419.27585,377.89087 c 0,9.53643 -17.53893,20.93009 -36.71244,23.27827 -19.15271,2.34562 -36.96497,3.39748 -36.96497,-5.22941 0,-14.29807 73.67741,-14.19302 73.67741,7.19734"
       id="path9344-1-3"
       inkscape:connector-curvature="0"
       sodipodi:nodetypes="cscc" />
    <path
       style="fill:none;stroke:#000000;stroke-width:2.1;stroke-linecap:butt;stroke-linejoin:miter;stroke-opacity:1;stroke-miterlimit:4;stroke-dasharray:none"
       d="m 419.27585,402.99157 c 0,9.53643 -17.53893,20.93009 -36.71244,23.27827 -19.15271,2.34562 -36.96497,3.39748 -36.96497,-5.22941 0,-14.29807 73.67741,-14.19302 73.67741,7.19734"
       id="path9344-1-0"
       inkscape:connector-curvature="0"
       sodipodi:nodetypes="cscc" />
    <path
       style="fill:none;stroke:#000000;stroke-width:2.1;stroke-linecap:butt;stroke-linejoin:miter;stroke-opacity:1;stroke-miterlimit:4;stroke-dasharray:none"
       d="m 419.27585,428.11408 c 0,9.53643 -17.53893,20.93009 -36.71244,23.27827 -19.15271,2.34562 -36.96497,3.39748 -36.96497,-5.22941 0,-14.29807 73.67741,-14.19302 73.67741,7.19734"
       id="path9344-1-3-2"
       inkscape:connector-curvature="0"
       sodipodi:nodetypes="cscc" />
    <path
       style="fill:none;stroke:#000000;stroke-width:2.1;stroke-linecap:butt;stroke-linejoin:miter;stroke-opacity:1;stroke-miterlimit:4;stroke-dasharray:none"
       d="m 419.27585,452.9482 c 0,9.53643 -13.49832,18.65725 -32.67183,21.00543"
       id="path9344-1-3-2-9"
       inkscape:connector-curvature="0"
       sodipodi:nodetypes="cc" />
  </g>
</svg>
